<svg id="Capa_1" data-name="Capa 1" xmlns="http://www.w3.org/2000/svg" viewBox="0 0 1146.42 439.8"><defs><style>.cls-1,.cls-3{fill:#fff;}.cls-1,.cls-2{stroke:#fff;stroke-miterlimit:10;}.cls-1{stroke-width:1.66px;}.cls-2{fill:none;stroke-width:16px;}.cls-3{font-size:200px;font-family:MarkerFelt-Thin, Marker Felt;font-weight:200;letter-spacing:-0.1em;}.cls-4{letter-spacing:0.09em;}.cls-5{letter-spacing:0.05em;}.cls-6{letter-spacing:0.06em;}.cls-7{letter-spacing:0.03em;}.cls-8{letter-spacing:0.06em;}.cls-9{letter-spacing:0.08em;}.cls-10{letter-spacing:0.07em;}.cls-11{letter-spacing:0.09em;}</style></defs><path class="cls-1" d="M728.11,277.7c-6.6-.24-13.24.14-20.77.28.17-3.63,9.88-19.34-4.11-23.74a146.43,146.43,0,0,0-19.88-4.64c-39.88-7-79.58-6.55-118.82,5.3-19.58,5.9-38.62,13-55.12,25.22-3.56,2.62-5.61,2.3-8.12-2.05-12.21-21.24-26-41.28-50.1-52.48a143.58,143.58,0,0,1-14.2-7.91c-27-16.48-57.78-23.06-88.72-29.18-6.12-1.21-10.39,2.39-11,7.53-.75,6.67-2.16,13.28-3.5,21.23-2.88-2.48-4.27-3.92-5.92-5-3.83-2.6-7.53-5.51-11.74-7.4-3.9-1.75-8.64-1.76-11.23,2.39A114.62,114.62,0,0,0,297,222.72c-2.89,6.71-5.09,13.67-8,20.39-34.34,80.81-63.45,163.15-85.94,247.47-3.07,11.52-.31,15.91,12.28,16.72,24.48,1.59,48.14,6.64,71.34,13.56C321,531.06,355.38,541,386,559.29c9,5.36,22.79,11.33,31.43,17.13,10.18,6.84,33.83-7.32,44.44-9.68,41.35-9.19,82.37-6.53,123,2,17.93,3.76,35.33,9.65,53,14.38,7.54,2,11.3-.16,15.72-6.3,4.14-5.76,14.88-44.64,17.8-54.15,15.37-50.06,31.29-100,46.62-150,4.48-14.62,8.65-29.31,12.7-44,3.8-13.77,9-27.71,9.15-42C739.92,279.86,734.31,278.38,728.11,277.7Zm-217,14.65a5.87,5.87,0,0,1,2.88-3.47c57.8-27.15,117.7-35.76,180.22-20.64.89.21,1.72.61,3.35,1.19-6.83,23.87-12.52,47.9-20.62,71.22-19.85,57.16-36.82,115-51.67,173.41-1.5,5.91-3.5,11.72-5.55,18.5-61.34-26.4-122.13-16.88-183.55,2.56,1-3.07,1.67-5.68,2.75-8.13,27.74-62.95,47.43-128.15,63.45-194.35C505.59,319.27,508.08,305.76,511.1,292.35ZM337,246c4.24-13.08,7.15-26.53,10.88-40.63,12.36,3,25.54,5.48,38.26,9.29,25.54,7.65,48.59,20.31,70.67,34.12,9.54,6,16.63,15.46,24.69,23.49,5.46,5.44,10.92,10.93,15.85,16.79,1.59,1.9,2.69,5.36,2,7.61-18.56,63.09-35.28,126.68-59,188.38-5.68,14.78-12.69,29.12-19.25,44-4.85-3.91-9.18-7.78-13.91-11.17-21-15-45.07-23-70.94-27.21-15.93-2.56-31.72-5.84-47.63-8.48-11.73-1.94-23.55-3.47-35.35-5,16-42.08,39.75-95.77,52.8-138.52C315.58,307.55,327,277,337,246Zm387.93,61c-24.5,71.49-48.64,143.08-68.8,215.74-1.94,7-2.83,14.22-4.79,21.2s-4.7,14-7.09,21.05c-1.22,3.58-3.66,3.3-6.78,2.4-13.23-3.83-26.4-7.87-39.8-11.11-26.21-6.33-53-10-80.11-9.94-31.12.12-61.55,5.48-89.91,19.16a6.14,6.14,0,0,1-4.86-.41c-6.91-4.07-13.58-8.49-20.42-12.65a268.36,268.36,0,0,0-56-26.08C312,515.05,277.56,503.76,241,499.72c-7.53-.83-17.28-3-25.79-3.43.71-3.41,32.68-112.11,52.71-162.58q15.94-40.2,31-80.69c4.33-11.56,7.75-23.41,12-36.29,5.55,3,19.43,9.17,17.47,14.2-2.84,7.31-5.88,14.56-8.45,21.95-10.46,30.08-21.43,60-30.92,90.37-12,38.47-27.87,75.57-44.06,112.59a101.08,101.08,0,0,0-3.84,9.66c-.94,2.92-7.54,15.77-5.21,17.94,2.53,2.35,16.06,4.09,19.53,4.95,27.89,6.95,57.09,10.68,85,17.13,26.73,6.16,51.47,17.05,69.85,38a38.51,38.51,0,0,0,6.12,5.55c4.37,3.2,8.52,2.93,14.18,1.14A454.53,454.53,0,0,1,478.19,538c23.07-4.6,46.47-7.07,70-6.23,20.66.73,40.14,6.64,58.86,13.94,13.76,5.37,25.25-.64,28.81-13.7,9.59-35.2,19.27-70.39,29.69-105.38,7-23.51,15.67-46.59,22.9-70s13.67-47.36,20.64-71.74l22.16,2C729.18,293.58,727.23,300.33,724.94,307Z" transform="translate(-201.17 -181.54)"/><path class="cls-1" d="M374.61,264.72a4,4,0,0,1,1.69-7.46,17.55,17.55,0,0,1,8.34.95c10,3.34,20.39,6.31,29.31,11.44,11.56,6.66,21.89,15.2,32.62,23.09a18.24,18.24,0,0,1,5.57,6c1.06,2.1,1.87,5.65.72,7.13-2.22,2.85-5.44,1.43-7.88-.74-17.19-15.33-37.68-25.61-59.19-34.45A85.17,85.17,0,0,1,374.61,264.72Z" transform="translate(-201.17 -181.54)"/><path class="cls-1" d="M343.41,349.65c23.83,3.48,46.7,9.63,66.33,23.44a33.2,33.2,0,0,1,6.14,5.49c1.55,1,1.95,2.84.29,3.92a6.08,6.08,0,0,1-3.45.47c-24.28-7.48-48.58-14.9-72.71-22.75-2.65-.86-5-3.25-7.29-5.49a2.76,2.76,0,0,1,1.71-4.7A37.21,37.21,0,0,1,343.41,349.65Z" transform="translate(-201.17 -181.54)"/><path class="cls-1" d="M408.53,429.32c-26.4-7.62-65.72-17.58-87.8-26.46a1.81,1.81,0,0,1,.55-3.49,91.75,91.75,0,0,1,11-.92c25.26.69,48.71,7,69.21,21.06,1.88,1.3,6.87,3.89,9.29,6.83C412,427.79,410.39,429.86,408.53,429.32Z" transform="translate(-201.17 -181.54)"/><path class="cls-1" d="M362.68,305.11c25.45,2.75,48.83,10.17,67.88,26.94,11.92,11.45,4.1,10.23,4.1,10.23a32.69,32.69,0,0,1-4.59-2.15c-14.91-10.2-31.62-16.53-49.46-20.8C372,317.27,363.78,314,355.49,311c-2.3-.83-6.77-2.17-6.31-3.93C350.22,303.09,358.44,304.65,362.68,305.11Z" transform="translate(-201.17 -181.54)"/><path class="cls-1" d="M309.24,450.11c23.94.87,56.76,4.93,76.28,16.21,3.93,2.52,5.88,4.38,6.73,5.77,1.13,1.86-1.05,4-3.16,3.22-24.25-9.2-62.67-13.17-88.43-19.88a1.76,1.76,0,0,1,0-3.43A47.42,47.42,0,0,1,309.24,450.11Z" transform="translate(-201.17 -181.54)"/><path class="cls-1" d="M571.1,324.1c-3.09.45-6.18,1-9.25,1.55q-8.58,1.65-17,3.89c-3,.79-5.87,1.77-8.8,2.65-1.84.55-7.54,3.27-8.25.55a8.64,8.64,0,0,1-.38-3.26c.46-3.38,6.18-6.16,9-7.55a79.47,79.47,0,0,1,12.95-4.62c10.24-3,20.66-5.84,31.24-7.26,17.23-2.33,34.77-1.9,52.1-2.16,2,0,4.09,0,5.74,1,2.6,1.6,3.15,5.92.39,7.72a11,11,0,0,1-4.57,1.31C613.29,320.61,592,321,571.1,324.1Z" transform="translate(-201.17 -181.54)"/><path class="cls-1" d="M623.28,360q-22,.86-44,1.7c-18.08.68-35.38,5.3-52.69,9.94-1.83.49-5.22.87-6-.34s1.39-4.91,3-5.67c7.31-3.5,14.73-7,22.49-9.37,23.64-7.16,47.87-8.94,72.38-6.54,1.89.18,4,.12,5.56.94a20.47,20.47,0,0,1,3,2,3.44,3.44,0,0,1-.4,5.68C625,359.43,623.47,360.21,623.28,360Z" transform="translate(-201.17 -181.54)"/><path class="cls-1" d="M605.36,394.39c3.54,0,8.94.16,8.79,4.75s-5.41,4.57-9.09,4.8c-13.5.84-27.09.68-40.49,2.24-18.42,2.15-36.82,6.16-55.34,8.31a17.22,17.22,0,0,1-4.86.08c-1.05-.19-2.27-.86-2.1-1.87a2.22,2.22,0,0,1,.61-1,15.12,15.12,0,0,1,4.86-3.44,175.62,175.62,0,0,1,21.6-8.48C560.78,393.54,586.75,394.22,605.36,394.39Z" transform="translate(-201.17 -181.54)"/><path class="cls-1" d="M526,443.47q3-.72,5.93-1.22c20.52-3.45,42.33-2.31,62.58,1.56,2.39.46,6.1,3.16,6,4.75-.16,4-4.29,3.7-7.56,3.67-18.83-.19-37.68-.94-56.5-.34-9.4.31-18.75,3.21-28.16,4.63l-.22,0c-3.63.38-5.82-4.27-2.93-6.41a2.75,2.75,0,0,1,.63-.34C512.38,447.52,519.15,445.12,526,443.47Z" transform="translate(-201.17 -181.54)"/><path class="cls-1" d="M558.34,486.32c3.27.13,6.62,1.57,9.58,3a4.93,4.93,0,0,1,2.19,4.31c-.26,1.3-2.24,2.83-3.77,3.28a22.47,22.47,0,0,1-6.78.37q-27.9-.68-55.79-1.43c-1.51,0-3.14.22-4.52-.2-1.91-.59-5.22-1.13-5.43-2.55s3.12-3.25,5-3.67C503.6,488.36,543.41,485.74,558.34,486.32Z" transform="translate(-201.17 -181.54)"/><line class="cls-2" x1="601.83" y1="6.5" x2="595.83" y2="402.5"/><text class="cls-3" transform="translate(649.83 183.2)">T<tspan class="cls-4" x="76.4" y="0">o</tspan><tspan class="cls-5" x="177.4" y="0">t</tspan><tspan class="cls-6" x="258.59" y="0">e</tspan><tspan class="cls-7" x="347.59" y="0">m</tspan><tspan class="cls-8"><tspan x="0" y="180">B</tspan><tspan class="cls-9" x="110.2" y="180">o</tspan><tspan class="cls-10" x="207.99" y="180">o</tspan><tspan class="cls-11" x="303.19" y="180">k</tspan><tspan class="cls-7" x="417.18" y="180">s</tspan></tspan></text><text x="-201.17" y="-181.54"/></svg>